<svg width="375" height="812" viewBox="0 0 375 812" fill="none" xmlns="http://www.w3.org/2000/svg">
<g clip-path="url(#clip0_1603_1375)">
<rect width="375" height="812" fill="url(#paint0_linear_1603_1375)"/>
<circle cx="30" cy="30" r="30" transform="matrix(1 0 0 -1 325 441)" fill="url(#paint1_linear_1603_1375)"/>
<circle cx="30" cy="30" r="30" transform="matrix(1 0 0 -1 325 441)" fill="url(#paint2_linear_1603_1375)"/>
<ellipse cx="7" cy="6.5" rx="7" ry="6.5" transform="matrix(1 0 0 -1 334 117)" fill="url(#paint3_linear_1603_1375)"/>
<ellipse cx="7" cy="6.5" rx="7" ry="6.5" transform="matrix(1 0 0 -1 334 117)" fill="url(#paint4_linear_1603_1375)"/>
<ellipse cx="4" cy="3.5" rx="4" ry="3.5" transform="matrix(1 0 0 -1 317 96)" fill="url(#paint5_linear_1603_1375)"/>
<ellipse cx="4" cy="3.5" rx="4" ry="3.5" transform="matrix(1 0 0 -1 317 96)" fill="url(#paint6_linear_1603_1375)"/>
<circle cx="53" cy="659" r="41" fill="url(#paint7_linear_1603_1375)"/>
<circle cx="46.5" cy="156.5" r="14.5" fill="url(#paint8_linear_1603_1375)"/>
<circle cx="70.5" cy="130.5" r="7.5" fill="url(#paint9_linear_1603_1375)"/>
</g>
<defs>
<linearGradient id="paint0_linear_1603_1375" x1="80" y1="-1.12901e-05" x2="515.611" y2="143.825" gradientUnits="userSpaceOnUse">
<stop stop-color="#F6D7FF"/>
<stop offset="1" stop-color="#DCE9FF"/>
</linearGradient>
<linearGradient id="paint1_linear_1603_1375" x1="7.28323" y1="9.98843" x2="65.5838" y2="53.7919" gradientUnits="userSpaceOnUse">
<stop stop-color="#E89DFF"/>
<stop offset="1" stop-color="#D5DCFF"/>
</linearGradient>
<linearGradient id="paint2_linear_1603_1375" x1="53.7586" y1="13.6129" x2="4.82311" y2="47.0549" gradientUnits="userSpaceOnUse">
<stop stop-color="#E4F1FF"/>
<stop offset="1" stop-color="#FDFFC7"/>
</linearGradient>
<linearGradient id="paint3_linear_1603_1375" x1="1.69942" y1="2.16416" x2="14.5614" y2="12.5713" gradientUnits="userSpaceOnUse">
<stop stop-color="#E89DFF"/>
<stop offset="1" stop-color="#D5DCFF"/>
</linearGradient>
<linearGradient id="paint4_linear_1603_1375" x1="12.5437" y1="2.94945" x2="1.67802" y2="10.9461" gradientUnits="userSpaceOnUse">
<stop stop-color="#E4F1FF"/>
<stop offset="1" stop-color="#FDFFC7"/>
</linearGradient>
<linearGradient id="paint5_linear_1603_1375" x1="0.971098" y1="1.16532" x2="7.9713" y2="7.1762" gradientUnits="userSpaceOnUse">
<stop stop-color="#E89DFF"/>
<stop offset="1" stop-color="#D5DCFF"/>
</linearGradient>
<linearGradient id="paint6_linear_1603_1375" x1="7.16781" y1="1.58817" x2="1.22247" y2="6.23158" gradientUnits="userSpaceOnUse">
<stop stop-color="#E4F1FF"/>
<stop offset="1" stop-color="#FDFFC7"/>
</linearGradient>
<linearGradient id="paint7_linear_1603_1375" x1="12" y1="659.562" x2="82.7671" y2="680.342" gradientUnits="userSpaceOnUse">
<stop stop-color="#E89DFF"/>
<stop offset="1" stop-color="#D5DCFF"/>
</linearGradient>
<linearGradient id="paint8_linear_1603_1375" x1="32" y1="156.699" x2="57.0274" y2="164.048" gradientUnits="userSpaceOnUse">
<stop stop-color="#E89DFF"/>
<stop offset="1" stop-color="#D5DCFF"/>
</linearGradient>
<linearGradient id="paint9_linear_1603_1375" x1="63" y1="130.603" x2="75.9452" y2="134.404" gradientUnits="userSpaceOnUse">
<stop stop-color="#E89DFF"/>
<stop offset="1" stop-color="#D5DCFF"/>
</linearGradient>
<clipPath id="clip0_1603_1375">
<rect width="375" height="812" fill="white"/>
</clipPath>
</defs>
</svg>
